<?xml version="1.0" encoding="UTF-8"?>
<svg version="1.1" xmlns="http://www.w3.org/2000/svg" width="32" height="32">
<path d="M0 0 C4.38307775 2.2337741 6.87041791 4.9397281 9.01171875 9.3046875 C10.23845538 13.94090595 10.26138137 17.42352533 8.94921875 22.0546875 C6.40479955 26.32274551 3.51690347 29.05209514 -0.98828125 31.3046875 C-6.21668459 31.82581921 -10.62864879 31.94742284 -15.42578125 29.6796875 C-19.18645965 26.19418069 -21.6631869 23.71967407 -22.37109375 18.4609375 C-22.54793523 13.69800699 -22.38294514 10.18873461 -20.42578125 5.8046875 C-14.59399873 -0.17662791 -8.16098136 -2.85393847 0 0 Z " fill="#25263B" transform="translate(21.98828125,0.6953125)"/>
<path d="M0 0 C4.38307775 2.2337741 6.87041791 4.9397281 9.01171875 9.3046875 C10.23845538 13.94090595 10.26138137 17.42352533 8.94921875 22.0546875 C6.40479955 26.32274551 3.51690347 29.05209514 -0.98828125 31.3046875 C-6.21668459 31.82581921 -10.62864879 31.94742284 -15.42578125 29.6796875 C-19.18645965 26.19418069 -21.6631869 23.71967407 -22.37109375 18.4609375 C-22.54793523 13.69800699 -22.38294514 10.18873461 -20.42578125 5.8046875 C-14.59399873 -0.17662791 -8.16098136 -2.85393847 0 0 Z M-17.98828125 6.3046875 C-20.96840598 10.77487459 -20.59561267 15.06364232 -19.98828125 20.3046875 C-17.85249605 24.73446421 -15.59815411 27.50082421 -10.98828125 29.3046875 C-6.66199592 30.03309268 -2.78537656 30.29210251 1.14453125 28.1328125 C4.56288551 25.35808142 7.04678641 22.7004904 8.01171875 18.3046875 C8.33558925 14.67733793 8.31136767 12.09126592 7.01171875 8.6796875 C3.75354867 4.81061053 -0.05991926 2.00059102 -5.04296875 0.81640625 C-10.55309553 0.44120306 -14.16514753 2.63654569 -17.98828125 6.3046875 Z " fill="#F1F0F1" transform="translate(21.98828125,0.6953125)"/>
<path d="M0 0 C7.93220339 -0.61016949 7.93220339 -0.61016949 11.625 1.5 C13.35003661 4.63643021 12.8156866 6.60454702 12.1640625 10.03515625 C11.91587992 13.00743808 13.28687088 14.6701444 15 17 C15 17.66 15 18.32 15 19 C11.23145777 17.74381926 10.92041544 16.33985294 9 13 C8.34 12.67 7.68 12.34 7 12 C6.67 12.66 6.34 13.32 6 14 C5.34 13.34 4.68 12.68 4 12 C4 13.98 4 15.96 4 18 C2.68 18.33 1.36 18.66 0 19 C-1.10914408 12.46837378 -0.78441153 6.56492112 0 0 Z " fill="#779AB3" transform="translate(9,6)"/>
<path d="M0 0 C4.07176758 1.76685629 7.14330489 3.98267455 10 7.375 C11.26477346 10.69503033 11.20714086 13.47860535 11 17 C10.360625 16.195625 9.72125 15.39125 9.0625 14.5625 C7.59396498 12.7249496 7.59396498 12.7249496 6 11 C5.34 13.31 4.68 15.62 4 18 C3.34 18 2.68 18 2 18 C1.26059618 15.1245407 0.92954364 13.29591672 1.625 10.375 C1.74875 9.59125 1.8725 8.8075 2 8 C0.39476162 5.82259744 -0.60583457 5.08918078 -3.26171875 4.48828125 C-4.06222656 4.43027344 -4.86273438 4.37226562 -5.6875 4.3125 C-7.110625 4.209375 -8.53375 4.10625 -10 4 C-10 7.63 -10 11.26 -10 15 C-10.33 15 -10.66 15 -11 15 C-11.33 12.36 -11.66 9.72 -12 7 C-12.99 7 -13.98 7 -15 7 C-14.00449135 4.3754772 -13.06036546 3.04971273 -10.875 1.25 C-7.13810451 -0.37473717 -3.96350377 -0.77958622 0 0 Z " fill="#313750" transform="translate(19,2)"/>
<path d="M0 0 C0.66 0.66 1.32 1.32 2 2 C2.66 1.67 3.32 1.34 4 1 C4.44933921 9.83700441 4.44933921 9.83700441 1 14 C-1.6875 15.8125 -1.6875 15.8125 -4 17 C-4.99 16.34 -5.98 15.68 -7 15 C-6.34 15 -5.68 15 -5 15 C-5.63979849 12.96758273 -5.63979849 12.96758273 -7 11 C-9.55519921 10.18828772 -9.55519921 10.18828772 -12 10 C-12.33 8.02 -12.66 6.04 -13 4 C-12.38125 4.7425 -12.38125 4.7425 -11.75 5.5 C-9.87797662 7.43386092 -9.87797662 7.43386092 -6 7 C-4.375 9.4375 -4.375 9.4375 -3 12 C-2.34 12.33 -1.68 12.66 -1 13 C-1.391875 12.34 -1.78375 11.68 -2.1875 11 C-3.34947203 6.70964175 -1.81014388 3.9219784 0 0 Z " fill="#242C4A" transform="translate(25,12)"/>
<path d="M0 0 C3.80195622 0.5431366 5.50130343 2.15665563 8 5 C9.4783226 7.95664519 9.06032783 10.74229737 9 14 C8.360625 13.195625 7.72125 12.39125 7.0625 11.5625 C5.59396498 9.7249496 5.59396498 9.7249496 4 8 C3.34 10.31 2.68 12.62 2 15 C1.34 15 0.68 15 0 15 C-0.38218767 13.34385343 -0.71395102 11.67542976 -1 10 C-0.67 9.67 -0.34 9.34 0 9 C0.04346799 7.00047242 0.039992 4.99960012 0 3 C0 2.01 0 1.02 0 0 Z " fill="#181E3B" transform="translate(21,5)"/>
<path d="M0 0 C0.33 0.66 0.66 1.32 1 2 C0.34773438 2.02578125 -0.30453125 2.0515625 -0.9765625 2.078125 C-6.69246061 2.44906824 -10.59064329 3.02082443 -15 7 C-17.7189051 11.21899067 -18.5038363 15.03836296 -19 20 C-19.33 20 -19.66 20 -20 20 C-20.35046991 15.07395065 -20.54197029 11.17065583 -18.4375 6.625 C-12.74537557 0.49501984 -8.071935 -0.65893347 0 0 Z " fill="#FAFAFA" transform="translate(20,0)"/>
<path d="M0 0 C2.375 -0.125 2.375 -0.125 5 0 C7.5654594 2.5654594 7.54046087 4.47686668 8 8 C4.7 8 1.4 8 -2 8 C-1.34 5.36 -0.68 2.72 0 0 Z " fill="#20192D" transform="translate(13,22)"/>
<path d="M0 0 C5.31365314 -0.35424354 5.31365314 -0.35424354 7.9375 1 C9.42782681 3.80532105 8.65712607 5.97524652 8.12890625 9 C7.93655996 11.98428182 9.27752059 13.657428 11 16 C11 16.66 11 17.32 11 18 C7.24623848 16.74874616 6.75926711 15.4347596 5 12 C5 11.34 5 10.68 5 10 C4.01 9.67 3.02 9.34 2 9 C3.32 8.67 4.64 8.34 6 8 C4.98839152 3.60685207 4.98839152 3.60685207 1.875 0.625 C1.25625 0.41875 0.6375 0.2125 0 0 Z " fill="#B6DEE5" transform="translate(13,7)"/>
<path d="M0 0 C0.33 0 0.66 0 1 0 C1.08636719 0.66386719 1.17273438 1.32773438 1.26171875 2.01171875 C1.94244508 6.28967778 2.54491189 9.3518442 5.0625 12.9375 C8.82293378 15.57780457 12.5905482 16.8183822 17 18 C17 18.33 17 18.66 17 19 C10.93033732 19.41859743 7.79767662 19.14344799 3 15 C0.49803929 12.24142794 -0.98844599 10.41190014 -1.01953125 6.61328125 C-0.77737239 4.37769871 -0.45026249 2.20237088 0 0 Z " fill="#E8E6E8" transform="translate(1,13)"/>
<path d="M0 0 C0.66 0.66 1.32 1.32 2 2 C2.66 1.67 3.32 1.34 4 1 C4 3.64 4 6.28 4 9 C2.02 9.66 0.04 10.32 -2 11 C-3.13643966 7.59068103 -2.86747764 6.99664544 -1.5625 3.8125 C-1.13130859 2.73935547 -1.13130859 2.73935547 -0.69140625 1.64453125 C-0.46324219 1.10183594 -0.23507813 0.55914062 0 0 Z " fill="#171730" transform="translate(25,12)"/>
<path d="M0 0 C1.32 0 2.64 0 4 0 C4.33 4.95 4.66 9.9 5 15 C1 11 1 11 0.57421875 8.9296875 C0.88888889 3.22222222 0.88888889 3.22222222 2 1 C1.34 0.67 0.68 0.34 0 0 Z " fill="#0F1229" transform="translate(4,10)"/>
<path d="M0 0 C1.99954746 -0.04254356 4.00041636 -0.04080783 6 0 C7 1 7 1 7.0625 3.5625 C7.041875 4.366875 7.02125 5.17125 7 6 C4.69 5.67 2.38 5.34 0 5 C0 3.35 0 1.7 0 0 Z " fill="#233255" transform="translate(12,9)"/>
<path d="M0 0 C0.99 0 1.98 0 3 0 C4.35439668 2.70879335 4.06501451 5.00933268 4 8 C2.68 8.33 1.36 8.66 0 9 C-0.87890625 2.84765625 -0.87890625 2.84765625 -1 1 C-0.67 0.67 -0.34 0.34 0 0 Z " fill="#667F9A" transform="translate(9,16)"/>
<path d="M0 0 C7.38461538 -0.36923077 7.38461538 -0.36923077 10.5 1.5 C10.995 1.995 11.49 2.49 12 3 C11.34 3.66 10.68 4.32 10 5 C10 5.99 10 6.98 10 8 C9.5875 7.525625 9.175 7.05125 8.75 6.5625 C6.817815 4.83733482 5.51807725 4.43415125 3 4 C3 3.34 3 2.68 3 2 C2.01 1.34 1.02 0.68 0 0 Z " fill="#343D5B" transform="translate(11,2)"/>
<path d="M0 0 C3.14531444 1.64754566 4.65080438 3.45026575 6.625 6.375 C6.625 7.035 6.625 7.695 6.625 8.375 C5.635 8.045 4.645 7.715 3.625 7.375 C3.625 6.715 3.625 6.055 3.625 5.375 C3.0475 5.106875 2.47 4.83875 1.875 4.5625 C-0.4075868 3.35780141 -2.3487942 1.96701885 -4.375 0.375 C-2.375 -0.625 -2.375 -0.625 0 0 Z " fill="#E7E9EC" transform="translate(23.375,1.625)"/>
<path d="M0 0 C2.69082872 0.17635452 5.32851446 0.61835921 8 1 C8.33 2.32 8.66 3.64 9 5 C6.8125 5.8125 6.8125 5.8125 4 6 C1.1875 3.5625 1.1875 3.5625 -1 1 C-0.67 0.67 -0.34 0.34 0 0 Z " fill="#373245" transform="translate(5,23)"/>
<path d="M0 0 C0.33 0 0.66 0 1 0 C0.67 2.64 0.34 5.28 0 8 C-0.66 8 -1.32 8 -2 8 C-2.33 6.35 -2.66 4.7 -3 3 C-2.01 2.67 -1.02 2.34 0 2 C0 1.34 0 0.68 0 0 Z " fill="#222B4E" transform="translate(23,12)"/>
<path d="M0 0 C1.5 1.0625 1.5 1.0625 3 3 C3.1875 6.6875 3.1875 6.6875 3 10 C0.9375 7.8125 0.9375 7.8125 -1 5 C-0.75 2.1875 -0.75 2.1875 0 0 Z " fill="#5B5E70" transform="translate(27,9)"/>
<path d="M0 0 C4.42857143 5.14285714 4.42857143 5.14285714 5 9 C2 8 2 8 0 5 C-0.125 2.3125 -0.125 2.3125 0 0 Z " fill="#B0C8D3" transform="translate(19,16)"/>
<path d="M0 0 C0.99 0 1.98 0 3 0 C2.25 1.9375 2.25 1.9375 1 4 C-1.125 4.75 -1.125 4.75 -3 5 C-3.33 4.34 -3.66 3.68 -4 3 C-3.01 3 -2.02 3 -1 3 C-0.67 2.01 -0.34 1.02 0 0 Z " fill="#2E253B" transform="translate(25,22)"/>
<path d="M0 0 C1.5 1.375 1.5 1.375 3 3 C3 3.66 3 4.32 3 5 C3.66 5.66 4.32 6.32 5 7 C4.01 7.33 3.02 7.66 2 8 C1.01 7.34 0.02 6.68 -1 6 C-0.34 6 0.32 6 1 6 C0.67 4.02 0.34 2.04 0 0 Z " fill="#423A51" transform="translate(19,21)"/>
</svg>
