<?xml version="1.0" encoding="UTF-8" standalone="no"?>
<!-- Generator: Adobe Illustrator 24.0.1, SVG Export Plug-In . SVG Version: 6.00 Build 0)  -->

<svg
   version="1.1"
   id="Layer_1"
   x="0px"
   y="0px"
   viewBox="0 0 32 31.999998"
   xml:space="preserve"
   sodipodi:docname="favicon.svg"
   inkscape:version="1.2.2 (b0a8486541, 2022-12-01)"
   width="32"
   height="32"
   xmlns:inkscape="http://www.inkscape.org/namespaces/inkscape"
   xmlns:sodipodi="http://sodipodi.sourceforge.net/DTD/sodipodi-0.dtd"
   xmlns="http://www.w3.org/2000/svg"
   xmlns:svg="http://www.w3.org/2000/svg"><defs
   id="defs287" /><sodipodi:namedview
   id="namedview285"
   pagecolor="#505050"
   bordercolor="#eeeeee"
   borderopacity="1"
   inkscape:showpageshadow="0"
   inkscape:pageopacity="0"
   inkscape:pagecheckerboard="false"
   inkscape:deskcolor="#505050"
   showgrid="false"
   inkscape:zoom="4.234"
   inkscape:cx="87.033538"
   inkscape:cy="68.729334"
   inkscape:window-width="1299"
   inkscape:window-height="1014"
   inkscape:window-x="1940"
   inkscape:window-y="40"
   inkscape:window-maximized="1"
   inkscape:current-layer="Layer_1"
   inkscape:lockguides="false"
   showguides="true" />
<style
   type="text/css"
   id="style9">
	.st0{fill:#4A5158;}
	.st1{fill:url(#SVGID_1_);}
	.st2{fill:url(#SVGID_2_);}
	.st3{fill:url(#SVGID_3_);}
	.st4{fill:url(#SVGID_4_);}
	.st5{fill:url(#SVGID_5_);}
	.st6{fill:url(#SVGID_6_);}
	.st7{fill:url(#SVGID_7_);}
	.st8{fill:url(#SVGID_8_);}
	.st9{fill:url(#SVGID_9_);}
	.st10{fill:url(#SVGID_10_);}
	.st11{fill:url(#SVGID_11_);}
	.st12{fill:url(#SVGID_12_);}
	.st13{fill:url(#SVGID_13_);}
	.st14{fill:url(#SVGID_14_);}
	.st15{fill:url(#SVGID_15_);}
	.st16{fill:url(#SVGID_16_);}
	.st17{fill:url(#SVGID_17_);}
	.st18{fill:url(#SVGID_18_);}
	.st19{fill:url(#SVGID_19_);}
</style>

<linearGradient
   id="SVGID_1_"
   gradientUnits="userSpaceOnUse"
   x1="1236.6156"
   y1="1435.1466"
   x2="1277.0798"
   y2="1435.1602"
   gradientTransform="matrix(-0.09129392,0.07208912,-0.07268361,-0.0920435,241.75007,56.200083)">
	<stop
   offset="0.0507"
   style="stop-color:#9D1C20"
   id="stop23" />
	<stop
   offset="0.3715"
   style="stop-color:#CF2026"
   id="stop25" />
	<stop
   offset="0.6855"
   style="stop-color:#DA3426"
   id="stop27" />
	<stop
   offset="0.7011"
   style="stop-color:#DA3626"
   id="stop29" />
	<stop
   offset="1"
   style="stop-color:#E65F25"
   id="stop31" />
</linearGradient>
<path
   class="st1"
   d="m 20.190407,14.618518 0.622929,-1.592216 c 0.113729,-0.292078 0.377376,-0.501443 0.687548,-0.545385 l 1.693022,-0.245552 c 0.307586,-0.04395 0.615174,0.07754 0.809031,0.32051 l 1.077847,1.357002 c 0.193858,0.242968 0.242968,0.571233 0.129238,0.860728 l -0.622928,1.592215 c -0.11373,0.292078 -0.377376,0.501445 -0.687548,0.545386 l -1.693022,0.245552 c -0.307587,0.04395 -0.615173,-0.07754 -0.809031,-0.320511 l -1.077847,-1.357002 c -0.193857,-0.242968 -0.242968,-0.571233 -0.129239,-0.860727 z"
   id="path34"
   inkscape:export-filename="logo.svg"
   inkscape:export-xdpi="96"
   inkscape:export-ydpi="96"
   style="fill:url(#SVGID_1_);stroke-width:0.258476" />
<linearGradient
   id="SVGID_2_"
   gradientUnits="userSpaceOnUse"
   x1="1189.7753"
   y1="1427.7577"
   x2="1230.2394"
   y2="1427.7712"
   gradientTransform="matrix(-0.09129392,0.07208912,-0.07268361,-0.0920435,241.75007,56.200083)">
	<stop
   offset="0.0507"
   style="stop-color:#9D1C20"
   id="stop36" />
	<stop
   offset="0.3715"
   style="stop-color:#CF2026"
   id="stop38" />
	<stop
   offset="0.6855"
   style="stop-color:#DA3426"
   id="stop40" />
	<stop
   offset="0.7011"
   style="stop-color:#DA3626"
   id="stop42" />
	<stop
   offset="1"
   style="stop-color:#E65F25"
   id="stop44" />
</linearGradient>
<path
   class="st2"
   d="m 25.003241,11.922608 0.622928,-1.592216 c 0.11373,-0.292079 0.377377,-0.501444 0.687548,-0.545385 l 1.693022,-0.245553 c 0.307587,-0.04395 0.615174,0.07754 0.809032,0.32051 l 1.077847,1.357003 c 0.193857,0.242968 0.242968,0.571233 0.129238,0.860726 l -0.622928,1.592217 c -0.11373,0.292078 -0.377376,0.501444 -0.687548,0.545385 l -1.693022,0.245553 c -0.307587,0.04395 -0.615174,-0.07754 -0.809031,-0.320511 L 25.13248,12.783335 c -0.191273,-0.242968 -0.240384,-0.571234 -0.129239,-0.860727 z"
   id="path47"
   style="fill:url(#SVGID_2_);stroke-width:0.258476" />
<linearGradient
   id="SVGID_3_"
   gradientUnits="userSpaceOnUse"
   x1="1181.0869"
   y1="1506.1077"
   x2="1221.551"
   y2="1506.1213"
   gradientTransform="matrix(-0.09129392,0.07208912,-0.07268361,-0.0920435,241.75007,56.200083)">
	<stop
   offset="0.0507"
   style="stop-color:#9D1C20"
   id="stop49" />
	<stop
   offset="0.3715"
   style="stop-color:#CF2026"
   id="stop51" />
	<stop
   offset="0.6855"
   style="stop-color:#DA3426"
   id="stop53" />
	<stop
   offset="0.7011"
   style="stop-color:#DA3626"
   id="stop55" />
	<stop
   offset="1"
   style="stop-color:#E65F25"
   id="stop57" />
</linearGradient>
<path
   class="st3"
   d="M 20.102525,4.0855979 20.725454,2.4933823 C 20.839183,2.2013037 21.10283,1.9919377 21.413001,1.9479967 l 1.693022,-0.2455528 c 0.307588,-0.043941 0.615174,0.077543 0.809032,0.3205111 l 1.077847,1.3570022 c 0.193857,0.2429676 0.242968,0.5712327 0.129238,0.8607266 L 24.499211,5.8328996 C 24.385482,6.1249778 24.121836,6.3343434 23.811664,6.3782855 L 22.118642,6.6238382 C 21.811056,6.6677852 21.503468,6.5462972 21.309611,6.303327 L 20.231764,4.9463244 C 20.037906,4.7007718 19.988796,4.3750918 20.102525,4.0855979 Z"
   id="path60"
   style="fill:url(#SVGID_3_);stroke-width:0.258476" />
<linearGradient
   id="SVGID_4_"
   gradientUnits="userSpaceOnUse"
   x1="1324.5265"
   y1="1441.7512"
   x2="1364.9907"
   y2="1441.7648"
   gradientTransform="matrix(-0.09129392,0.07208912,-0.07268361,-0.0920435,241.75007,56.200083)">
	<stop
   offset="0.0507"
   style="stop-color:#9D1C20"
   id="stop62" />
	<stop
   offset="0.3715"
   style="stop-color:#CF2026"
   id="stop64" />
	<stop
   offset="0.6855"
   style="stop-color:#DA3426"
   id="stop66" />
	<stop
   offset="0.7011"
   style="stop-color:#DA3626"
   id="stop68" />
	<stop
   offset="1"
   style="stop-color:#E65F25"
   id="stop70" />
</linearGradient>
<path
   class="st4"
   d="m 11.683943,20.34636 0.622929,-1.592217 c 0.113729,-0.292078 0.377376,-0.501445 0.687548,-0.545385 l 1.693022,-0.245553 c 0.307586,-0.04395 0.615174,0.07754 0.809031,0.320512 l 1.077847,1.357001 c 0.193858,0.242967 0.242968,0.571234 0.129238,0.860727 L 16.08063,22.09366 c -0.11373,0.29208 -0.377376,0.501445 -0.687548,0.545386 l -1.693021,0.245553 c -0.307588,0.04395 -0.615174,-0.07754 -0.809032,-0.320511 L 11.813182,21.207086 C 11.621908,20.964118 11.572798,20.635853 11.683943,20.34636 Z"
   id="path73"
   style="fill:url(#SVGID_4_);stroke-width:0.258476" />
<linearGradient
   id="SVGID_5_"
   gradientUnits="userSpaceOnUse"
   x1="1305.1683"
   y1="1402.5612"
   x2="1345.6324"
   y2="1402.5748"
   gradientTransform="matrix(-0.09129392,0.07208912,-0.07268361,-0.0920435,241.75007,56.200083)">
	<stop
   offset="0.0507"
   style="stop-color:#9D1C20"
   id="stop75" />
	<stop
   offset="0.3715"
   style="stop-color:#CF2026"
   id="stop77" />
	<stop
   offset="0.6855"
   style="stop-color:#DA3426"
   id="stop79" />
	<stop
   offset="0.7011"
   style="stop-color:#DA3626"
   id="stop81" />
	<stop
   offset="1"
   style="stop-color:#E65F25"
   id="stop83" />
</linearGradient>
<path
   class="st5"
   d="m 16.300335,22.558918 0.622929,-1.592216 c 0.113729,-0.292078 0.377376,-0.501444 0.687547,-0.545385 l 1.693022,-0.245552 c 0.307587,-0.04395 0.615174,0.07754 0.809032,0.320511 l 1.077847,1.357001 c 0.193857,0.242969 0.242967,0.571233 0.129237,0.860728 l -0.622928,1.592215 c -0.11373,0.292078 -0.377375,0.501445 -0.687548,0.545386 l -1.693021,0.245553 c -0.307587,0.04395 -0.615174,-0.07754 -0.809031,-0.320511 l -1.077847,-1.357002 c -0.193858,-0.242969 -0.242968,-0.571233 -0.129239,-0.860728 z"
   id="path86"
   style="fill:url(#SVGID_5_);stroke-width:0.258476" />
<linearGradient
   id="SVGID_6_"
   gradientUnits="userSpaceOnUse"
   x1="1324.3209"
   y1="1365.2808"
   x2="1364.785"
   y2="1365.2944"
   gradientTransform="matrix(-0.09129392,0.07208912,-0.07268361,-0.0920435,241.75007,56.200083)">
	<stop
   offset="0.0507"
   style="stop-color:#9D1C20"
   id="stop88" />
	<stop
   offset="0.3715"
   style="stop-color:#CF2026"
   id="stop90" />
	<stop
   offset="0.6855"
   style="stop-color:#DA3426"
   id="stop92" />
	<stop
   offset="0.7011"
   style="stop-color:#DA3626"
   id="stop94" />
	<stop
   offset="1"
   style="stop-color:#E65F25"
   id="stop96" />
</linearGradient>
<path
   class="st6"
   d="m 17.261868,27.371751 0.622928,-1.592216 c 0.11373,-0.292076 0.377376,-0.501441 0.687547,-0.545383 l 1.693022,-0.245553 c 0.307588,-0.04395 0.615174,0.07754 0.809032,0.320511 l 1.077848,1.357 c 0.193857,0.242967 0.242968,0.571234 0.129238,0.860726 l -0.622929,1.592216 c -0.113729,0.292079 -0.377376,0.501445 -0.687547,0.545386 l -1.693022,0.245553 c -0.307586,0.04395 -0.615174,-0.07754 -0.809031,-0.320511 L 17.391106,28.232478 C 17.197248,27.98951 17.148138,27.661244 17.261868,27.371751 Z"
   id="path99"
   style="fill:url(#SVGID_6_);stroke-width:0.258476" />
<linearGradient
   id="SVGID_7_"
   gradientUnits="userSpaceOnUse"
   x1="1340.0309"
   y1="1482.3439"
   x2="1380.4951"
   y2="1482.3575"
   gradientTransform="matrix(-0.09129392,0.07208912,-0.07268361,-0.0920435,241.75007,56.200083)">
	<stop
   offset="0.0507"
   style="stop-color:#9D1C20"
   id="stop101" />
	<stop
   offset="0.3715"
   style="stop-color:#CF2026"
   id="stop103" />
	<stop
   offset="0.6855"
   style="stop-color:#DA3426"
   id="stop105" />
	<stop
   offset="0.7011"
   style="stop-color:#DA3626"
   id="stop107" />
	<stop
   offset="1"
   style="stop-color:#E65F25"
   id="stop109" />
</linearGradient>
<path
   class="st7"
   d="m 7.318275,17.727991 0.622928,-1.592215 c 0.11373,-0.292079 0.377376,-0.501444 0.687548,-0.545386 l 1.693021,-0.245552 c 0.307587,-0.04395 0.615174,0.07754 0.809031,0.320511 l 1.077848,1.357001 c 0.193857,0.242969 0.242968,0.571234 0.129238,0.860727 l -0.622928,1.592217 c -0.11373,0.292078 -0.377376,0.501444 -0.687548,0.545385 L 9.334392,20.266231 C 9.026805,20.310178 8.719218,20.18869 8.52536,19.94572 L 7.4475123,18.588719 C 7.2562402,18.34575 7.2071293,18.017485 7.318275,17.727991 Z"
   id="path112"
   style="fill:url(#SVGID_7_);stroke-width:0.258476" />
<linearGradient
   id="SVGID_8_"
   gradientUnits="userSpaceOnUse"
   x1="1316.965"
   y1="1521.1248"
   x2="1357.4292"
   y2="1521.1384"
   gradientTransform="matrix(-0.09129392,0.07208912,-0.07268361,-0.0920435,241.75007,56.200083)">
	<stop
   offset="0.0507"
   style="stop-color:#9D1C20"
   id="stop114" />
	<stop
   offset="0.3715"
   style="stop-color:#CF2026"
   id="stop116" />
	<stop
   offset="0.6855"
   style="stop-color:#DA3426"
   id="stop118" />
	<stop
   offset="0.7011"
   style="stop-color:#DA3626"
   id="stop120" />
	<stop
   offset="1"
   style="stop-color:#E65F25"
   id="stop122" />
</linearGradient>
<path
   class="st8"
   d="M 6.6074637,12.496426 7.2303926,10.90421 c 0.11373,-0.292079 0.3773753,-0.501444 0.6875471,-0.545386 L 9.610962,10.113271 c 0.307587,-0.04394 0.615173,0.07754 0.809031,0.320511 l 1.077848,1.357003 c 0.193857,0.242968 0.242968,0.571233 0.129238,0.860727 l -0.622929,1.592215 c -0.11373,0.292078 -0.377376,0.501445 -0.687547,0.545385 l -1.693022,0.245553 c -0.307586,0.04395 -0.615174,-0.07754 -0.8090309,-0.32051 L 6.7367019,13.357153 C 6.5428446,13.114185 6.4937346,12.785919 6.6074637,12.496426 Z"
   id="path125"
   style="fill:url(#SVGID_8_);stroke-width:0.258476" />
<linearGradient
   id="SVGID_9_"
   gradientUnits="userSpaceOnUse"
   x1="1348.5117"
   y1="1404.5651"
   x2="1388.976"
   y2="1404.5787"
   gradientTransform="matrix(-0.09129392,0.07208912,-0.07268361,-0.0920435,241.75007,56.200083)">
	<stop
   offset="0.0507"
   style="stop-color:#9D1C20"
   id="stop127" />
	<stop
   offset="0.3715"
   style="stop-color:#CF2026"
   id="stop129" />
	<stop
   offset="0.6855"
   style="stop-color:#DA3426"
   id="stop131" />
	<stop
   offset="0.7011"
   style="stop-color:#DA3626"
   id="stop133" />
	<stop
   offset="1"
   style="stop-color:#E65F25"
   id="stop135" />
</linearGradient>
<path
   class="st9"
   d="m 12.198312,25.500383 0.622929,-1.592216 c 0.113729,-0.29208 0.377375,-0.501445 0.687548,-0.545386 l 1.693021,-0.245553 c 0.307587,-0.04395 0.615174,0.07754 0.809032,0.320511 l 1.077847,1.357002 c 0.193856,0.242969 0.242967,0.571234 0.129237,0.860725 l -0.622928,1.592216 c -0.11373,0.292078 -0.377375,0.501445 -0.687548,0.545385 l -1.693021,0.245553 c -0.307587,0.04395 -0.615175,-0.07754 -0.809032,-0.320511 L 12.32755,26.361107 C 12.133693,26.115554 12.084583,25.78729 12.198312,25.500383 Z"
   id="path138"
   style="fill:url(#SVGID_9_);stroke-width:0.258476" />
<linearGradient
   id="SVGID_10_"
   gradientUnits="userSpaceOnUse"
   x1="1296.8236"
   y1="1478.5115"
   x2="1337.2878"
   y2="1478.5251"
   gradientTransform="matrix(-0.09129392,0.07208912,-0.07268361,-0.0920435,241.75007,56.200083)">
	<stop
   offset="0.0507"
   style="stop-color:#9D1C20"
   id="stop140" />
	<stop
   offset="0.3715"
   style="stop-color:#CF2026"
   id="stop142" />
	<stop
   offset="0.6855"
   style="stop-color:#DA3426"
   id="stop144" />
	<stop
   offset="0.7011"
   style="stop-color:#DA3626"
   id="stop146" />
	<stop
   offset="1"
   style="stop-color:#E65F25"
   id="stop148" />
</linearGradient>
<path
   class="st10"
   d="m 11.541782,14.967461 0.622928,-1.592214 c 0.11373,-0.29208 0.377375,-0.501445 0.687548,-0.545386 l 1.693021,-0.245553 c 0.307587,-0.04395 0.615174,0.07754 0.809031,0.320511 l 1.077848,1.357002 c 0.193858,0.242968 0.242969,0.571233 0.129239,0.860726 l -0.622929,1.592217 c -0.113729,0.292078 -0.377377,0.501444 -0.687547,0.545385 l -1.693022,0.245553 c -0.307587,0.04395 -0.615174,-0.07754 -0.809032,-0.320512 l -1.077848,-1.357001 c -0.193857,-0.242968 -0.242967,-0.571234 -0.129237,-0.860728 z"
   id="path151"
   style="fill:url(#SVGID_10_);stroke-width:0.258476" />
<linearGradient
   id="SVGID_11_"
   gradientUnits="userSpaceOnUse"
   x1="1273.0552"
   y1="1515.1329"
   x2="1313.5193"
   y2="1515.1466"
   gradientTransform="matrix(-0.09129392,0.07208912,-0.07268361,-0.0920435,241.75007,56.200083)">
	<stop
   offset="0.0507"
   style="stop-color:#9D1C20"
   id="stop153" />
	<stop
   offset="0.3715"
   style="stop-color:#CF2026"
   id="stop155" />
	<stop
   offset="0.6855"
   style="stop-color:#DA3426"
   id="stop157" />
	<stop
   offset="0.7011"
   style="stop-color:#DA3626"
   id="stop159" />
	<stop
   offset="1"
   style="stop-color:#E65F25"
   id="stop161" />
</linearGradient>
<path
   class="st11"
   d="m 11.050676,9.883227 0.622929,-1.592215 c 0.11373,-0.2920787 0.377375,-0.5014442 0.687547,-0.5453864 l 1.693022,-0.2455527 c 0.307587,-0.043947 0.615173,0.077541 0.809031,0.3205113 l 1.077848,1.3570028 c 0.193857,0.242967 0.242968,0.571232 0.129238,0.860726 l -0.622929,1.592216 c -0.11373,0.292079 -0.377376,0.501445 -0.687547,0.545385 l -1.693022,0.245553 c -0.307586,0.04395 -0.615174,-0.07754 -0.809031,-0.32051 L 11.179914,10.743954 C 10.986057,10.500987 10.936946,10.172721 11.050676,9.883227 Z"
   id="path164"
   style="fill:url(#SVGID_11_);stroke-width:0.258476" />
<linearGradient
   id="SVGID_12_"
   gradientUnits="userSpaceOnUse"
   x1="1253.5352"
   y1="1474.9878"
   x2="1293.9994"
   y2="1475.0013"
   gradientTransform="matrix(-0.09129392,0.07208912,-0.07268361,-0.0920435,241.75007,56.200083)">
	<stop
   offset="0.0507"
   style="stop-color:#9D1C20"
   id="stop166" />
	<stop
   offset="0.3715"
   style="stop-color:#CF2026"
   id="stop168" />
	<stop
   offset="0.6855"
   style="stop-color:#DA3426"
   id="stop170" />
	<stop
   offset="0.7011"
   style="stop-color:#DA3626"
   id="stop172" />
	<stop
   offset="1"
   style="stop-color:#E65F25"
   id="stop174" />
</linearGradient>
<path
   class="st12"
   d="m 15.74978,12.170746 0.622928,-1.592216 c 0.11373,-0.29208 0.377376,-0.501445 0.687548,-0.545386 l 1.693021,-0.245553 c 0.307587,-0.04395 0.615175,0.07754 0.809032,0.320511 l 1.077848,1.357002 c 0.193857,0.242968 0.242968,0.571234 0.129238,0.860727 l -0.622928,1.592215 c -0.11373,0.292079 -0.377376,0.501446 -0.687548,0.545386 l -1.693021,0.245553 c -0.307588,0.04395 -0.615175,-0.07754 -0.809033,-0.320511 L 15.879018,13.031473 C 15.687745,12.788504 15.63605,12.460238 15.74978,12.170746 Z"
   id="path177"
   style="fill:url(#SVGID_12_);stroke-width:0.258476" />
<linearGradient
   id="SVGID_13_"
   gradientUnits="userSpaceOnUse"
   x1="1229.1606"
   y1="1512.9701"
   x2="1269.6248"
   y2="1512.9836"
   gradientTransform="matrix(-0.09129392,0.07208912,-0.07268361,-0.0920435,241.75007,56.200083)">
	<stop
   offset="0.0507"
   style="stop-color:#9D1C20"
   id="stop179" />
	<stop
   offset="0.3715"
   style="stop-color:#CF2026"
   id="stop181" />
	<stop
   offset="0.6855"
   style="stop-color:#DA3426"
   id="stop183" />
	<stop
   offset="0.7011"
   style="stop-color:#DA3626"
   id="stop185" />
	<stop
   offset="1"
   style="stop-color:#E65F25"
   id="stop187" />
</linearGradient>
<path
   class="st13"
   d="M 15.214733,6.9185018 15.837662,5.3262851 C 15.951392,5.0342068 16.215038,4.8248403 16.525209,4.7809 l 1.693022,-0.2455526 c 0.307587,-0.043947 0.615174,0.077541 0.809032,0.3205112 l 1.077847,1.3570016 c 0.193857,0.2429673 0.242968,0.5712336 0.129239,0.8607265 L 19.61142,8.665803 C 19.49769,8.957882 19.234044,9.167247 18.923872,9.211189 L 17.23085,9.456741 C 16.923264,9.500688 16.615676,9.3792 16.421819,9.13623 L 15.343972,7.7792283 C 15.1527,7.53626 15.101003,7.2079947 15.214733,6.9185018 Z"
   id="path190"
   style="fill:url(#SVGID_13_);stroke-width:0.258476" />
<linearGradient
   id="SVGID_14_"
   gradientUnits="userSpaceOnUse"
   x1="1243.0283"
   y1="1360.6842"
   x2="1283.4926"
   y2="1360.6979"
   gradientTransform="matrix(-0.09129392,0.07208912,-0.07268361,-0.0920435,241.73712,56.204632)">
	<stop
   offset="0.0507"
   style="stop-color:#9D1C20"
   id="stop192" />
	<stop
   offset="0.3715"
   style="stop-color:#CF2026"
   id="stop194" />
	<stop
   offset="0.6855"
   style="stop-color:#DA3426"
   id="stop196" />
	<stop
   offset="0.7011"
   style="stop-color:#DA3626"
   id="stop198" />
	<stop
   offset="1"
   style="stop-color:#E65F25"
   id="stop200" />
</linearGradient>
<path
   class="st14"
   d="m 25.003241,21.938574 0.622928,-1.592214 c 0.11373,-0.29208 0.377377,-0.501445 0.687548,-0.545386 l 1.693022,-0.245553 c 0.307587,-0.04395 0.615174,0.07754 0.809032,0.32051 l 1.077847,1.357003 c 0.193857,0.242968 0.242968,0.571233 0.129238,0.860726 l -0.622928,1.592217 c -0.11373,0.292078 -0.377376,0.501444 -0.687548,0.545385 l -1.693022,0.245553 c -0.307587,0.04395 -0.615174,-0.07754 -0.809031,-0.320511 L 25.13248,22.799302 c -0.191273,-0.242968 -0.240384,-0.571234 -0.129239,-0.860728 z"
   id="path203"
   style="fill:url(#SVGID_14_);stroke-width:0.258476" />
<linearGradient
   id="SVGID_15_"
   gradientUnits="userSpaceOnUse"
   x1="1261.714"
   y1="1400.1731"
   x2="1302.1781"
   y2="1400.1866"
   gradientTransform="matrix(-0.09129392,0.07208912,-0.07268361,-0.0920435,241.75007,56.200083)">
	<stop
   offset="0.0507"
   style="stop-color:#9D1C20"
   id="stop205" />
	<stop
   offset="0.3715"
   style="stop-color:#CF2026"
   id="stop207" />
	<stop
   offset="0.6855"
   style="stop-color:#DA3426"
   id="stop209" />
	<stop
   offset="0.7011"
   style="stop-color:#DA3626"
   id="stop211" />
	<stop
   offset="1"
   style="stop-color:#E65F25"
   id="stop213" />
</linearGradient>
<path
   class="st15"
   d="m 20.44113,19.645888 0.622928,-1.592216 c 0.11373,-0.292079 0.377375,-0.501445 0.687547,-0.545386 l 1.693022,-0.245553 c 0.307588,-0.04395 0.615174,0.07754 0.809032,0.320512 l 1.077848,1.357001 c 0.193857,0.242969 0.242968,0.571234 0.129238,0.860728 l -0.622929,1.592215 c -0.113729,0.292079 -0.377376,0.501445 -0.687547,0.545385 l -1.693022,0.245553 c -0.307587,0.04395 -0.615174,-0.07754 -0.809031,-0.32051 L 20.570368,20.506615 C 20.37651,20.263646 20.3274,19.935381 20.44113,19.645888 Z"
   id="path216"
   style="fill:url(#SVGID_15_);stroke-width:0.258476" />
<linearGradient
   id="SVGID_16_"
   gradientUnits="userSpaceOnUse"
   x1="1217.6078"
   y1="1394.9039"
   x2="1258.072"
   y2="1394.9175"
   gradientTransform="matrix(-0.09129392,0.07208912,-0.07268361,-0.0920435,241.75007,56.200083)">
	<stop
   offset="0.0507"
   style="stop-color:#9D1C20"
   id="stop218" />
	<stop
   offset="0.3715"
   style="stop-color:#CF2026"
   id="stop220" />
	<stop
   offset="0.6855"
   style="stop-color:#DA3426"
   id="stop222" />
	<stop
   offset="0.7011"
   style="stop-color:#DA3626"
   id="stop224" />
	<stop
   offset="1"
   style="stop-color:#E65F25"
   id="stop226" />
</linearGradient>
<path
   class="st16"
   d="m 24.850741,16.952562 0.622928,-1.592216 c 0.11373,-0.292078 0.377375,-0.501444 0.687547,-0.545386 l 1.693022,-0.245553 c 0.307587,-0.04395 0.615174,0.07754 0.809031,0.320511 l 1.077847,1.357003 c 0.193858,0.242968 0.242968,0.571233 0.129239,0.860727 l -0.622929,1.592215 c -0.113729,0.292079 -0.377376,0.501445 -0.687548,0.545385 l -1.693022,0.245553 c -0.307586,0.04395 -0.615173,-0.07754 -0.809031,-0.32051 l -1.077847,-1.357002 c -0.193857,-0.242968 -0.242967,-0.571234 -0.129237,-0.860727 z"
   id="path229"
   style="fill:url(#SVGID_16_);stroke-width:0.258476" />
<g
   id="g270"
   transform="matrix(0.25847657,0,0,0.25847657,-0.0948335,0.2937466)">
	
		<linearGradient
   id="SVGID_17_"
   gradientUnits="userSpaceOnUse"
   x1="82.685501"
   y1="-125.2162"
   x2="107.5393"
   y2="-125.2078"
   gradientTransform="rotate(-33.993587,334.96314,79.372206)">
		<stop
   offset="0.0507"
   style="stop-color:#9D1C20"
   id="stop231" />
		<stop
   offset="0.3715"
   style="stop-color:#CF2026"
   id="stop233" />
		<stop
   offset="0.6855"
   style="stop-color:#DA3426"
   id="stop235" />
		<stop
   offset="0.7011"
   style="stop-color:#DA3626"
   id="stop237" />
		<stop
   offset="1"
   style="stop-color:#E65F25"
   id="stop239" />
	</linearGradient>
	<path
   class="st17"
   d="m 11.59,51.06 6.49,9.63 1.96,-1.32 c 0.27,-9.8 3.12,-19.44 8.35,-27.86 -1.42,-1.45 -3.05,-2.55 -4.82,-3.29 -5.82,6.66 -9.87,14.51 -11.98,22.84 z"
   id="path242"
   style="fill:url(#SVGID_17_)" />
	
		<linearGradient
   id="SVGID_18_"
   gradientUnits="userSpaceOnUse"
   x1="64.101601"
   y1="-70.054298"
   x2="112.5763"
   y2="-70.038002"
   gradientTransform="rotate(-33.993587,334.96314,79.372206)">
		<stop
   offset="0.0507"
   style="stop-color:#9D1C20"
   id="stop244" />
		<stop
   offset="0.3715"
   style="stop-color:#CF2026"
   id="stop246" />
		<stop
   offset="0.6855"
   style="stop-color:#DA3426"
   id="stop248" />
		<stop
   offset="0.7011"
   style="stop-color:#DA3626"
   id="stop250" />
		<stop
   offset="1"
   style="stop-color:#E65F25"
   id="stop252" />
	</linearGradient>
	<path
   class="st18"
   d="M 29.3,91.61 C 24.95,85.07 22.18,77.94 20.88,70.68 L 14.63,74.9 9.97,67.99 c 0.55,9.52 3.53,19.02 9.19,27.53 15.72,23.66 46.44,31.36 71.2,18.91 -22.52,6.21 -47.43,-2.3 -61.06,-22.82 z"
   id="path255"
   style="fill:url(#SVGID_18_)" />
	
		<linearGradient
   id="SVGID_19_"
   gradientUnits="userSpaceOnUse"
   x1="116.822"
   y1="-137.1237"
   x2="137.3997"
   y2="-137.11681"
   gradientTransform="rotate(-33.993587,334.96314,79.372206)">
		<stop
   offset="0.0507"
   style="stop-color:#9D1C20"
   id="stop257" />
		<stop
   offset="0.3715"
   style="stop-color:#CF2026"
   id="stop259" />
		<stop
   offset="0.6855"
   style="stop-color:#DA3426"
   id="stop261" />
		<stop
   offset="0.7011"
   style="stop-color:#DA3626"
   id="stop263" />
		<stop
   offset="1"
   style="stop-color:#E65F25"
   id="stop265" />
	</linearGradient>
	<path
   class="st19"
   d="m 32.05,20.34 c 1.11,0.67 2.16,1.45 3.16,2.32 2.83,-2.99 6.03,-5.72 9.61,-8.1 1.91,-1.27 3.86,-2.38 5.86,-3.39 -5.54,1.53 -10.94,3.94 -15.99,7.29 -0.91,0.61 -1.78,1.24 -2.64,1.88 z"
   id="path268"
   style="fill:url(#SVGID_19_)" />
</g>
<g
   id="g272">
</g>
<g
   id="g274">
</g>
<g
   id="g276">
</g>
<g
   id="g278">
</g>
<g
   id="g280">
</g>
<g
   id="g282">
</g>
</svg>
