<?xml version="1.0" standalone="no"?>
<!DOCTYPE svg PUBLIC "-//W3C//DTD SVG 20010904//EN"
 "http://www.w3.org/TR/2001/REC-SVG-20010904/DTD/svg10.dtd">
<svg version="1.0" xmlns="http://www.w3.org/2000/svg"
 width="32.000000pt" height="32.000000pt" viewBox="0 0 32.000000 32.000000"
 preserveAspectRatio="xMidYMid meet">

<g transform="translate(0.000000,32.000000) scale(0.100000,-0.100000)"
fill="#000000" stroke="none">
<path d="M115 289 c-114 -33 -127 -202 -21 -253 43 -20 79 -20 123 1 47 22 73
66 73 125 0 39 -6 54 -31 82 -17 20 -47 40 -67 46 -42 11 -37 11 -77 -1z m62
-38 c7 -1 20 -12 29 -26 14 -21 15 -31 5 -51 -10 -22 -8 -31 9 -59 13 -21 17
-36 10 -40 -5 -3 -19 10 -31 29 -12 20 -29 36 -39 36 -10 0 -20 6 -23 14 -4 9
-14 12 -26 9 -18 -5 -20 0 -19 44 l0 49 36 -2 c21 -1 43 -3 49 -3z m-52 -120
c5 -1 5 -5 -1 -11 -11 -11 -44 -3 -44 10 0 5 8 7 18 5 9 -2 21 -4 27 -4z m-5
-41 c0 -5 -4 -10 -9 -10 -6 0 -13 5 -16 10 -3 6 1 10 9 10 9 0 16 -4 16 -10z"/>
<path d="M120 216 c0 -12 6 -30 13 -40 11 -16 17 -17 36 -7 34 18 24 54 -16
62 -29 6 -33 4 -33 -15z"/>
</g>
</svg>
